<?xml version="1.0" encoding="UTF-8" standalone="no"?>
<!-- Generator: Adobe Illustrator 12.0.1, SVG Export Plug-In  -->

<svg
   version="1.1"
   width="771"
   height="304.19687"
   viewBox="0 0 771 304.19687"
   enable-background="new 0 0 771 365"
   xml:space="preserve"
   id="svg133"
   sodipodi:docname="Manchester_encoding_both_conventions.svg"
   inkscape:version="1.3.2 (091e20ef0f, 2023-11-25, custom)"
   xmlns:inkscape="http://www.inkscape.org/namespaces/inkscape"
   xmlns:sodipodi="http://sodipodi.sourceforge.net/DTD/sodipodi-0.dtd"
   xmlns="http://www.w3.org/2000/svg"
   xmlns:svg="http://www.w3.org/2000/svg"><sodipodi:namedview
   id="namedview133"
   pagecolor="#ffffff"
   bordercolor="#999999"
   borderopacity="1"
   inkscape:showpageshadow="0"
   inkscape:pageopacity="0"
   inkscape:pagecheckerboard="0"
   inkscape:deskcolor="#d1d1d1"
   inkscape:zoom="0.72114137"
   inkscape:cx="243.36421"
   inkscape:cy="321.01889"
   inkscape:window-width="1920"
   inkscape:window-height="1035"
   inkscape:window-x="0"
   inkscape:window-y="0"
   inkscape:window-maximized="0"
   inkscape:current-layer="svg133" />
<defs
   id="defs1">
</defs>
<rect
   fill="#ffffff"
   width="771"
   height="304.19687"
   id="rect1"
   x="0"
   y="0"
   style="stroke-width:0.912916" />
<line
   fill="none"
   stroke="#e5e5e5"
   stroke-width="2"
   stroke-miterlimit="10"
   x1="742.98199"
   y1="243.08899"
   x2="174.366"
   y2="243.08899"
   id="line1" />
<path
   fill="none"
   stroke="#e5e5e5"
   stroke-width="2"
   stroke-miterlimit="10"
   d="M 742.957,152.77 H 172.266 M 740.617,77.133 H 172 m 87.482,192.293 V 33.432 m 43.732,235.512 V 33.432 m 43.741,236.203 V 77.133 m 43.741,191.811 V 33.432 m 43.742,235.512 V 33.432 m 43.731,235.512 V 33.432 M 521.92,268.944 V 77.133 m 43.731,192.502 V 77.133 m 43.732,191.811 V 77.133 m 43.751,191.811 V 77.133"
   id="path1"
   sodipodi:nodetypes="cccccccccccccccccccccccc" />
<polyline
   fill-rule="evenodd"
   clip-rule="evenodd"
   points="233.025,181.032 236.668,181.032 236.668,168.482 232.709,169.278   232.709,167.237 236.648,166.441 238.872,166.441 238.872,181.032 242.504,181.032 242.504,182.909 233.025,182.909   233.025,181.032 "
   id="polyline1" />
<path
   fill-rule="evenodd"
   clip-rule="evenodd"
   d="m 281.348,167.911 c -1.143,0 -2.01,0.571 -2.591,1.693 -0.571,1.122 -0.857,2.816 -0.857,5.081 0,2.266 0.286,3.959 0.857,5.081 0.582,1.123 1.449,1.694 2.591,1.694 1.153,0 2.021,-0.571 2.592,-1.694 0.582,-1.122 0.867,-2.815 0.867,-5.081 0,-2.265 -0.286,-3.959 -0.867,-5.081 -0.571,-1.122 -1.439,-1.693 -2.592,-1.693 m 0,-1.755 c 1.847,0 3.255,0.734 4.224,2.184 0.97,1.448 1.459,3.57 1.459,6.346 0,2.776 -0.489,4.897 -1.459,6.347 -0.969,1.47 -2.377,2.184 -4.224,2.184 -1.847,0 -3.255,-0.714 -4.234,-2.184 -0.969,-1.449 -1.449,-3.571 -1.449,-6.347 0,-2.776 0.479,-4.897 1.449,-6.346 0.979,-1.449 2.387,-2.184 4.234,-2.184"
   id="path2" />
<polyline
   fill-rule="evenodd"
   clip-rule="evenodd"
   points="320.508,181.032 324.141,181.032 324.141,168.482 320.192,169.278   320.192,167.237 324.12,166.441 326.345,166.441 326.345,181.032 329.987,181.032 329.987,182.909 320.508,182.909 320.508,181.032   "
   id="polyline2" />
<path
   fill-rule="evenodd"
   clip-rule="evenodd"
   d="m 368.821,167.911 c -1.143,0 -2.01,0.571 -2.582,1.693 -0.572,1.122 -0.857,2.816 -0.857,5.081 0,2.266 0.286,3.959 0.857,5.081 0.571,1.123 1.438,1.694 2.582,1.694 1.163,0 2.02,-0.571 2.591,-1.694 0.582,-1.122 0.878,-2.815 0.878,-5.081 0,-2.265 -0.296,-3.959 -0.878,-5.081 -0.571,-1.122 -1.428,-1.693 -2.591,-1.693 m 0,-1.755 c 1.847,0 3.255,0.734 4.224,2.184 0.979,1.448 1.469,3.57 1.469,6.346 0,2.776 -0.49,4.897 -1.469,6.347 -0.969,1.47 -2.377,2.184 -4.224,2.184 -1.836,0 -3.245,-0.714 -4.224,-2.184 -0.969,-1.449 -1.459,-3.571 -1.459,-6.347 0,-2.776 0.49,-4.897 1.459,-6.346 0.979,-1.449 2.387,-2.184 4.224,-2.184"
   id="path3" />
<path
   fill-rule="evenodd"
   clip-rule="evenodd"
   d="m 412.562,167.911 c -1.144,0 -2,0.571 -2.592,1.693 -0.571,1.122 -0.857,2.816 -0.857,5.081 0,2.266 0.286,3.959 0.857,5.081 0.592,1.123 1.448,1.694 2.592,1.694 1.163,0 2.02,-0.571 2.591,-1.694 0.571,-1.122 0.878,-2.815 0.878,-5.081 0,-2.265 -0.307,-3.959 -0.878,-5.081 -0.571,-1.122 -1.427,-1.693 -2.591,-1.693 m 0,-1.755 c 1.836,0 3.244,0.734 4.224,2.184 0.979,1.448 1.47,3.57 1.47,6.346 0,2.776 -0.49,4.897 -1.47,6.347 -0.979,1.47 -2.388,2.184 -4.224,2.184 -1.837,0 -3.255,-0.714 -4.225,-2.184 -0.97,-1.449 -1.459,-3.571 -1.459,-6.347 0,-2.776 0.489,-4.897 1.459,-6.346 0.971,-1.449 2.389,-2.184 4.225,-2.184"
   id="path4" />
<path
   fill-rule="evenodd"
   clip-rule="evenodd"
   d="m 587.527,167.911 c -1.143,0 -2.021,0.571 -2.592,1.693 -0.571,1.122 -0.857,2.816 -0.857,5.081 0,2.266 0.286,3.959 0.857,5.081 0.571,1.123 1.449,1.694 2.592,1.694 1.143,0 2,-0.571 2.592,-1.694 0.571,-1.122 0.857,-2.815 0.857,-5.081 0,-2.265 -0.286,-3.959 -0.857,-5.081 -0.592,-1.122 -1.449,-1.693 -2.592,-1.693 m 0,-1.755 c 1.837,0 3.244,0.734 4.204,2.184 0.979,1.448 1.469,3.57 1.469,6.346 0,2.776 -0.489,4.897 -1.469,6.347 -0.96,1.47 -2.367,2.184 -4.204,2.184 -1.857,0 -3.265,-0.714 -4.244,-2.184 -0.959,-1.449 -1.449,-3.571 -1.449,-6.347 0,-2.776 0.49,-4.897 1.449,-6.346 0.98,-1.449 2.387,-2.184 4.244,-2.184"
   id="path5" />
<path
   fill-rule="evenodd"
   clip-rule="evenodd"
   d="m 631.259,167.911 c -1.144,0 -2,0.571 -2.592,1.693 -0.571,1.122 -0.857,2.816 -0.857,5.081 0,2.266 0.286,3.959 0.857,5.081 0.592,1.123 1.448,1.694 2.592,1.694 1.163,0 2.02,-0.571 2.591,-1.694 0.572,-1.122 0.878,-2.815 0.878,-5.081 0,-2.265 -0.306,-3.959 -0.878,-5.081 -0.572,-1.122 -1.428,-1.693 -2.591,-1.693 m 0,-1.755 c 1.836,0 3.244,0.734 4.224,2.184 0.979,1.448 1.47,3.57 1.47,6.346 0,2.776 -0.49,4.897 -1.47,6.347 -0.979,1.47 -2.388,2.184 -4.224,2.184 -1.837,0 -3.245,-0.714 -4.225,-2.184 -0.979,-1.449 -1.469,-3.571 -1.469,-6.347 0,-2.776 0.489,-4.897 1.469,-6.346 0.98,-1.449 2.388,-2.184 4.225,-2.184"
   id="path6" />
<polyline
   fill-rule="evenodd"
   clip-rule="evenodd"
   points="451.723,181.032 455.354,181.032 455.354,168.482 451.416,169.278   451.416,167.237 455.334,166.441 457.559,166.441 457.559,181.032 461.211,181.032 461.211,182.909 451.723,182.909   451.723,181.032 "
   id="polyline6" />
<polyline
   fill-rule="evenodd"
   clip-rule="evenodd"
   points="495.474,181.032 499.105,181.032 499.105,168.482 495.147,169.278   495.147,167.237 499.086,166.441 501.31,166.441 501.31,181.032 504.942,181.032 504.942,182.909 495.474,182.909 495.474,181.032   "
   id="polyline7" />
<polyline
   fill-rule="evenodd"
   clip-rule="evenodd"
   points="539.205,181.032 542.837,181.032 542.837,168.482 538.878,169.278   538.878,167.237 542.816,166.441 545.041,166.441 545.041,181.032 548.674,181.032 548.674,182.909 539.205,182.909   539.205,181.032 "
   id="polyline8" />
<polyline
   fill-rule="evenodd"
   clip-rule="evenodd"
   points="670.419,181.032 674.051,181.032 674.051,168.482 670.092,169.278   670.092,167.237 674.03,166.441 676.255,166.441 676.255,181.032 679.887,181.032 679.887,182.909 670.419,182.909 670.419,181.032   "
   id="polyline9" />
<line
   fill="none"
   stroke="#ed3411"
   stroke-width="2"
   stroke-linecap="square"
   stroke-miterlimit="10"
   x1="215.741"
   y1="77.133003"
   x2="193.866"
   y2="77.133003"
   id="line9" />
<line
   fill="none"
   stroke="#ed3411"
   stroke-width="2"
   stroke-linecap="square"
   stroke-miterlimit="10"
   x1="215.741"
   y1="33.431999"
   x2="215.741"
   y2="77.133003"
   id="line10" />
<line
   fill="none"
   stroke="#ed3411"
   stroke-width="2"
   stroke-linecap="square"
   stroke-miterlimit="10"
   x1="237.60699"
   y1="33.431999"
   x2="215.741"
   y2="33.431999"
   id="line11" />
<line
   fill="none"
   stroke="#ed3411"
   stroke-width="2"
   stroke-linecap="square"
   stroke-miterlimit="10"
   x1="237.60699"
   y1="77.133003"
   x2="237.60699"
   y2="33.431999"
   id="line12" />
<line
   fill="none"
   stroke="#ed3411"
   stroke-width="2"
   stroke-linecap="square"
   stroke-miterlimit="10"
   x1="259.48199"
   y1="77.133003"
   x2="237.60699"
   y2="77.133003"
   id="line13" />
<line
   fill="none"
   stroke="#ed3411"
   stroke-width="2"
   stroke-linecap="square"
   stroke-miterlimit="10"
   x1="259.48199"
   y1="33.431999"
   x2="259.48199"
   y2="77.133003"
   id="line14" />
<line
   fill="none"
   stroke="#ed3411"
   stroke-width="2"
   stroke-linecap="square"
   stroke-miterlimit="10"
   x1="281.34799"
   y1="33.431999"
   x2="259.48199"
   y2="33.431999"
   id="line15" />
<line
   fill="none"
   stroke="#ed3411"
   stroke-width="2"
   stroke-linecap="square"
   stroke-miterlimit="10"
   x1="281.34799"
   y1="77.133003"
   x2="281.34799"
   y2="33.431999"
   id="line16" />
<line
   fill="none"
   stroke="#ed3411"
   stroke-width="2"
   stroke-linecap="square"
   stroke-miterlimit="10"
   x1="303.21399"
   y1="77.133003"
   x2="281.34799"
   y2="77.133003"
   id="line17" />
<line
   fill="none"
   stroke="#ed3411"
   stroke-width="2"
   stroke-linecap="square"
   stroke-miterlimit="10"
   x1="303.21399"
   y1="33.431999"
   x2="303.21399"
   y2="77.133003"
   id="line18" />
<line
   fill="none"
   stroke="#ed3411"
   stroke-width="2"
   stroke-linecap="square"
   stroke-miterlimit="10"
   x1="325.09"
   y1="33.431999"
   x2="303.21399"
   y2="33.431999"
   id="line19" />
<line
   fill="none"
   stroke="#ed3411"
   stroke-width="2"
   stroke-linecap="square"
   stroke-miterlimit="10"
   x1="325.09"
   y1="77.133003"
   x2="325.09"
   y2="33.431999"
   id="line20" />
<line
   fill="none"
   stroke="#ed3411"
   stroke-width="2"
   stroke-linecap="square"
   stroke-miterlimit="10"
   x1="346.95499"
   y1="77.133003"
   x2="325.09"
   y2="77.133003"
   id="line21" />
<line
   fill="none"
   stroke="#ed3411"
   stroke-width="2"
   stroke-linecap="square"
   stroke-miterlimit="10"
   x1="346.95499"
   y1="33.431999"
   x2="346.95499"
   y2="77.133003"
   id="line22" />
<line
   fill="none"
   stroke="#ed3411"
   stroke-width="2"
   stroke-linecap="square"
   stroke-miterlimit="10"
   x1="368.83099"
   y1="33.431999"
   x2="346.95499"
   y2="33.431999"
   id="line23" />
<line
   fill="none"
   stroke="#ed3411"
   stroke-width="2"
   stroke-linecap="square"
   stroke-miterlimit="10"
   x1="368.83099"
   y1="77.133003"
   x2="368.83099"
   y2="33.431999"
   id="line24" />
<line
   fill="none"
   stroke="#ed3411"
   stroke-width="2"
   stroke-linecap="square"
   stroke-miterlimit="10"
   x1="390.69601"
   y1="77.133003"
   x2="368.83099"
   y2="77.133003"
   id="line25" />
<line
   fill="none"
   stroke="#ed3411"
   stroke-width="2"
   stroke-linecap="square"
   stroke-miterlimit="10"
   x1="390.69601"
   y1="33.431999"
   x2="390.69601"
   y2="77.133003"
   id="line26" />
<line
   fill="none"
   stroke="#ed3411"
   stroke-width="2"
   stroke-linecap="square"
   stroke-miterlimit="10"
   x1="412.56201"
   y1="33.431999"
   x2="390.69601"
   y2="33.431999"
   id="line27" />
<line
   fill="none"
   stroke="#ed3411"
   stroke-width="2"
   stroke-linecap="square"
   stroke-miterlimit="10"
   x1="412.56201"
   y1="77.133003"
   x2="412.56201"
   y2="33.431999"
   id="line28" />
<line
   fill="none"
   stroke="#ed3411"
   stroke-width="2"
   stroke-linecap="square"
   stroke-miterlimit="10"
   x1="434.43799"
   y1="77.133003"
   x2="412.56201"
   y2="77.133003"
   id="line29" />
<line
   fill="none"
   stroke="#ed3411"
   stroke-width="2"
   stroke-linecap="square"
   stroke-miterlimit="10"
   x1="434.43799"
   y1="33.431999"
   x2="434.43799"
   y2="77.133003"
   id="line30" />
<line
   fill="none"
   stroke="#ed3411"
   stroke-width="2"
   stroke-linecap="square"
   stroke-miterlimit="10"
   x1="456.31299"
   y1="33.431999"
   x2="434.43799"
   y2="33.431999"
   id="line31" />
<line
   fill="none"
   stroke="#ed3411"
   stroke-width="2"
   stroke-linecap="square"
   stroke-miterlimit="10"
   x1="456.31299"
   y1="77.133003"
   x2="456.31299"
   y2="33.431999"
   id="line32" />
<line
   fill="none"
   stroke="#ed3411"
   stroke-width="2"
   stroke-linecap="square"
   stroke-miterlimit="10"
   x1="478.16901"
   y1="77.133003"
   x2="456.31299"
   y2="77.133003"
   id="line33" />
<line
   fill="none"
   stroke="#ed3411"
   stroke-width="2"
   stroke-linecap="square"
   stroke-miterlimit="10"
   x1="478.16901"
   y1="33.431999"
   x2="478.16901"
   y2="77.133003"
   id="line34" />
<line
   fill="none"
   stroke="#ed3411"
   stroke-width="2"
   stroke-linecap="square"
   stroke-miterlimit="10"
   x1="500.04501"
   y1="33.431999"
   x2="478.16901"
   y2="33.431999"
   id="line35" />
<line
   fill="none"
   stroke="#ed3411"
   stroke-width="2"
   stroke-linecap="square"
   stroke-miterlimit="10"
   x1="500.04501"
   y1="77.133003"
   x2="500.04501"
   y2="33.431999"
   id="line36" />
<line
   fill="none"
   stroke="#ed3411"
   stroke-width="2"
   stroke-linecap="square"
   stroke-miterlimit="10"
   x1="521.91998"
   y1="77.133003"
   x2="500.04501"
   y2="77.133003"
   id="line37" />
<line
   fill="none"
   stroke="#ed3411"
   stroke-width="2"
   stroke-linecap="square"
   stroke-miterlimit="10"
   x1="521.91998"
   y1="33.431999"
   x2="521.91998"
   y2="77.133003"
   id="line38" />
<line
   fill="none"
   stroke="#ed3411"
   stroke-width="2"
   stroke-linecap="square"
   stroke-miterlimit="10"
   x1="543.77502"
   y1="33.431999"
   x2="521.91998"
   y2="33.431999"
   id="line39" />
<line
   fill="none"
   stroke="#ed3411"
   stroke-width="2"
   stroke-linecap="square"
   stroke-miterlimit="10"
   x1="543.77502"
   y1="77.133003"
   x2="543.77502"
   y2="33.431999"
   id="line40" />
<line
   fill="none"
   stroke="#ed3411"
   stroke-width="2"
   stroke-linecap="square"
   stroke-miterlimit="10"
   x1="565.651"
   y1="77.133003"
   x2="543.77502"
   y2="77.133003"
   id="line41" />
<line
   fill="none"
   stroke="#ed3411"
   stroke-width="2"
   stroke-linecap="square"
   stroke-miterlimit="10"
   x1="565.651"
   y1="33.431999"
   x2="565.651"
   y2="77.133003"
   id="line42" />
<line
   fill="none"
   stroke="#ed3411"
   stroke-width="2"
   stroke-linecap="square"
   stroke-miterlimit="10"
   x1="587.52698"
   y1="33.431999"
   x2="565.651"
   y2="33.431999"
   id="line43" />
<line
   fill="none"
   stroke="#ed3411"
   stroke-width="2"
   stroke-linecap="square"
   stroke-miterlimit="10"
   x1="587.52698"
   y1="77.133003"
   x2="587.52698"
   y2="33.431999"
   id="line44" />
<line
   fill="none"
   stroke="#ed3411"
   stroke-width="2"
   stroke-linecap="square"
   stroke-miterlimit="10"
   x1="609.383"
   y1="77.133003"
   x2="587.52698"
   y2="77.133003"
   id="line45" />
<line
   fill="none"
   stroke="#ed3411"
   stroke-width="2"
   stroke-linecap="square"
   stroke-miterlimit="10"
   x1="609.383"
   y1="33.431999"
   x2="609.383"
   y2="77.133003"
   id="line46" />
<line
   fill="none"
   stroke="#ed3411"
   stroke-width="2"
   stroke-linecap="square"
   stroke-miterlimit="10"
   x1="631.25897"
   y1="33.431999"
   x2="609.383"
   y2="33.431999"
   id="line47" />
<line
   fill="none"
   stroke="#ed3411"
   stroke-width="2"
   stroke-linecap="square"
   stroke-miterlimit="10"
   x1="631.25897"
   y1="77.133003"
   x2="631.25897"
   y2="33.431999"
   id="line48" />
<line
   fill="none"
   stroke="#ed3411"
   stroke-width="2"
   stroke-linecap="square"
   stroke-miterlimit="10"
   x1="653.13397"
   y1="77.133003"
   x2="631.25897"
   y2="77.133003"
   id="line49" />
<line
   fill="none"
   stroke="#ed3411"
   stroke-width="2"
   stroke-linecap="square"
   stroke-miterlimit="10"
   x1="653.13397"
   y1="33.431999"
   x2="653.13397"
   y2="77.133003"
   id="line50" />
<line
   fill="none"
   stroke="#ed3411"
   stroke-width="2"
   stroke-linecap="square"
   stroke-miterlimit="10"
   x1="674.98901"
   y1="33.431999"
   x2="653.13397"
   y2="33.431999"
   id="line51" />
<line
   fill="none"
   stroke="#ed3411"
   stroke-width="2"
   stroke-linecap="square"
   stroke-miterlimit="10"
   x1="674.98901"
   y1="77.133003"
   x2="674.98901"
   y2="33.431999"
   id="line52" />
<line
   fill="none"
   stroke="#ed3411"
   stroke-width="2"
   stroke-linecap="square"
   stroke-miterlimit="10"
   x1="718.74103"
   y1="77.133003"
   x2="674.98901"
   y2="77.133003"
   id="line53" />
<line
   fill="none"
   stroke="#ed3411"
   stroke-width="2"
   stroke-linecap="square"
   stroke-miterlimit="10"
   x1="215.741"
   y1="152.77"
   x2="193.866"
   y2="152.77"
   id="line54" />
<line
   fill="none"
   stroke="#ed3411"
   stroke-width="2"
   stroke-linecap="square"
   stroke-miterlimit="10"
   x1="215.741"
   y1="109.059"
   x2="215.741"
   y2="152.77"
   id="line55" />
<line
   fill="none"
   stroke="#ed3411"
   stroke-width="2"
   stroke-linecap="square"
   stroke-miterlimit="10"
   x1="259.48199"
   y1="109.059"
   x2="215.741"
   y2="109.059"
   id="line56" />
<line
   fill="none"
   stroke="#ed3411"
   stroke-width="2"
   stroke-linecap="square"
   stroke-miterlimit="10"
   x1="259.48199"
   y1="152.77"
   x2="259.48199"
   y2="109.059"
   id="line57" />
<line
   fill="none"
   stroke="#ed3411"
   stroke-width="2"
   stroke-linecap="square"
   stroke-miterlimit="10"
   x1="346.95499"
   y1="109.059"
   x2="346.95499"
   y2="152.77"
   id="line58" />
<line
   fill="none"
   stroke="#ed3411"
   stroke-width="2"
   stroke-linecap="square"
   stroke-miterlimit="10"
   x1="565.651"
   y1="152.77"
   x2="565.651"
   y2="109.059"
   id="line59" />
<line
   fill="none"
   stroke="#ed3411"
   stroke-width="2"
   stroke-linecap="square"
   stroke-miterlimit="10"
   x1="653.13397"
   y1="152.77"
   x2="565.651"
   y2="152.77"
   id="line60" />
<line
   fill="none"
   stroke="#ed3411"
   stroke-width="2"
   stroke-linecap="square"
   stroke-miterlimit="10"
   x1="303.21399"
   y1="152.77"
   x2="303.21399"
   y2="109.059"
   id="line61" />
<line
   fill="none"
   stroke="#ed3411"
   stroke-width="2"
   stroke-linecap="square"
   stroke-miterlimit="10"
   x1="346.95499"
   y1="109.059"
   x2="303.21399"
   y2="109.059"
   id="line62" />
<line
   fill="none"
   stroke="#ed3411"
   stroke-width="2"
   stroke-linecap="square"
   stroke-miterlimit="10"
   x1="434.43799"
   y1="152.77"
   x2="346.95499"
   y2="152.77"
   id="line63" />
<line
   fill="none"
   stroke="#ed3411"
   stroke-width="2"
   stroke-linecap="square"
   stroke-miterlimit="10"
   x1="434.43799"
   y1="109.059"
   x2="434.43799"
   y2="152.77"
   id="line64" />
<line
   fill="none"
   stroke="#ed3411"
   stroke-width="2"
   stroke-linecap="square"
   stroke-miterlimit="10"
   x1="565.651"
   y1="109.059"
   x2="434.43799"
   y2="109.059"
   id="line65" />
<line
   fill="none"
   stroke="#ed3411"
   stroke-width="2"
   stroke-linecap="square"
   stroke-miterlimit="10"
   x1="653.13397"
   y1="109.059"
   x2="653.13397"
   y2="152.77"
   id="line66" />
<line
   fill="none"
   stroke="#ed3411"
   stroke-width="2"
   stroke-linecap="square"
   stroke-miterlimit="10"
   x1="696.86499"
   y1="109.059"
   x2="653.13397"
   y2="109.059"
   id="line67" />
<line
   fill="none"
   stroke="#ed3411"
   stroke-width="2"
   stroke-linecap="square"
   stroke-miterlimit="10"
   x1="696.86499"
   y1="152.77"
   x2="696.86499"
   y2="109.059"
   id="line68" />
<line
   fill="none"
   stroke="#ed3411"
   stroke-width="2"
   stroke-linecap="square"
   stroke-miterlimit="10"
   x1="718.74103"
   y1="152.77"
   x2="696.86499"
   y2="152.77"
   id="line69" />
<line
   fill="none"
   stroke="#ed3411"
   stroke-width="2"
   stroke-linecap="square"
   stroke-miterlimit="10"
   x1="303.21399"
   y1="152.77"
   x2="259.48199"
   y2="152.77"
   id="line70" />
<path
   fill="none"
   stroke="#ed3411"
   stroke-width="2"
   stroke-linecap="square"
   stroke-miterlimit="10"
   d="m 215.741,243.089 h -21.875 m 21.875,21.855 v -21.855 m 21.866,21.855 h -21.866 m 21.866,0 v -43.71 m 43.741,0 h -43.741 m 43.741,43.71 v -43.71 m 43.742,43.71 h -43.742 m 174.965,0 h -43.751 m 43.751,-43.71 v 43.71 m 87.462,0 H 521.92 m 21.855,-43.71 v 43.71 m 43.752,-43.71 h -43.752 m 43.752,43.71 v -43.71 m 21.856,43.71 H 587.528 M 718.741,243.089 H 696.865 M 325.09,221.234 v 43.71 m 43.741,-43.71 H 325.09 m 43.741,43.71 v -43.71 m 21.865,43.71 h -21.865 m 21.865,-43.71 v 43.71 m 21.866,-43.71 h -21.866 m 21.866,43.71 v -43.71 m 65.607,0 h -21.855 m 21.855,43.71 v -43.71 m 21.876,43.71 h -21.876 m 21.876,-43.71 v 43.71 m 21.875,-43.71 h -21.875 m 21.875,43.71 v -43.71 m 87.463,0 v 43.71 m 21.876,-43.71 h -21.876 m 21.876,43.71 v -43.71 m 43.73,43.71 h -43.73 m 43.73,-43.71 v 43.71 m 21.876,-43.71 h -21.876 m 21.876,21.855 v -21.854"
   id="path70" />

<path
   d="m 109.048,52.917 c -0.596,-2.16 -1.731,-4.44 -4.768,-4.44 -3.065,0 -5.676,2.448 -5.676,8.112 0,5.664 2.611,8.112 5.676,8.112 2.895,0 4.229,-2.232 4.768,-4.44 l 2.157,0.48 c -0.625,3.072 -2.951,5.568 -6.924,5.568 -4.598,0 -8.003,-3.576 -8.003,-9.72 0,-6.144 3.406,-9.72 8.003,-9.72 3.916,0 6.187,2.448 6.839,5.616 z"
   id="path72" />
<path
   d="m 116.625,65.926 h -2.214 V 47.253 h 2.214 z"
   id="path73" />
<path
   d="m 119.69,59.302 c 0,-4.968 2.781,-7.008 6.271,-7.008 3.49,0 6.272,2.04 6.272,7.008 0,4.968 -2.781,7.008 -6.272,7.008 -3.491,0 -6.271,-2.04 -6.271,-7.008 z m 10.33,0 c 0,-2.256 -0.653,-5.424 -4.059,-5.424 -3.405,0 -4.058,3.168 -4.058,5.424 0,2.256 0.653,5.424 4.058,5.424 3.406,0 4.059,-3.168 4.059,-5.424 z"
   id="path74" />
<path
   d="m 144.267,56.374 c -0.54,-1.224 -1.391,-2.544 -3.15,-2.496 -3.405,0 -4.058,3.168 -4.058,5.424 0,2.256 0.653,5.424 4.058,5.424 1.901,-0.072 2.98,-1.368 3.661,-2.664 l 1.788,0.672 c -0.908,2.016 -2.923,3.576 -5.449,3.576 -3.491,0 -6.271,-2.04 -6.271,-7.008 0,-4.968 2.781,-7.008 6.271,-7.008 2.583,0 4.172,1.368 5.023,3.36 z"
   id="path75" />
<path
   d="m 151.844,58.822 5.818,-6.144 h 2.469 l -4.313,4.536 4.966,8.712 H 158.4 l -4.001,-7.2 -2.554,2.664 v 4.536 h -2.214 V 47.253 h 2.214 v 11.569 z"
   id="path76" />
<path
   d="m 112.208,128.253 c 6.414,0 9.308,3.912 9.308,9.24 0,5.952 -2.895,9.432 -9.904,9.432 h -4.853 v -18.672 z m -3.122,16.993 h 2.186 c 5.505,-0.048 7.918,-2.4 7.918,-7.824 0,-4.776 -2.271,-7.44 -6.84,-7.488 h -3.264 z"
   id="path77" />
<path
   d="m 133.266,146.926 -0.227,-1.68 c -1.277,1.056 -2.696,2.064 -4.541,2.064 -2.412,0 -4.342,-1.704 -4.342,-3.792 0,-3.792 4.711,-4.608 8.173,-5.4 l 0.709,-0.168 v -0.744 c 0,-1.512 -1.221,-2.328 -2.98,-2.328 -1.731,0 -2.923,0.96 -3.831,2.088 l -1.561,-0.984 c 1.305,-1.584 3.008,-2.688 5.392,-2.688 2.128,0 5.193,1.104 5.193,4.128 v 6.576 c 0.028,0.984 -0.028,1.992 0.426,2.928 z m -1.107,-7.224 c -2.1,0.528 -5.931,1.248 -5.931,3.624 0,1.104 1.021,2.208 2.355,2.208 1.759,0 3.377,-1.032 4.456,-2.16 v -3.888 z"
   id="path78" />
<path
   d="m 141.836,133.678 h 3.547 v 1.584 h -3.547 v 8.328 c 0,1.296 -0.029,2.136 1.788,2.136 0.625,0 1.22,-0.048 1.76,-0.168 v 1.368 c -0.709,0.216 -1.447,0.384 -2.214,0.384 -3.746,0 -3.547,-2.136 -3.547,-4.56 v -7.488 h -2.384 v -1.584 h 2.384 v -4.296 h 2.214 v 4.296 z"
   id="path79" />
<path
   d="m 156.055,146.926 -0.227,-1.68 c -1.277,1.056 -2.696,2.064 -4.541,2.064 -2.412,0 -4.342,-1.704 -4.342,-3.792 0,-3.792 4.711,-4.608 8.173,-5.4 l 0.709,-0.168 v -0.744 c 0,-1.512 -1.221,-2.328 -2.98,-2.328 -1.731,0 -2.923,0.96 -3.831,2.088 l -1.561,-0.984 c 1.305,-1.584 3.008,-2.688 5.392,-2.688 2.128,0 5.193,1.104 5.193,4.128 v 6.576 c 0.028,0.984 -0.028,1.992 0.426,2.928 z m -1.107,-7.224 c -2.1,0.528 -5.931,1.248 -5.931,3.624 0,1.104 1.021,2.208 2.355,2.208 1.759,0 3.377,-1.032 4.456,-2.16 v -3.888 z"
   id="path80" />



























<path
   d="M 28.086,236.926 H 25.76 v -18.672 h 3.859 l 4.825,15.384 h 0.085 l 4.739,-15.384 h 3.945 v 18.672 h -2.327 v -16.92 h -0.057 l -5.392,16.92 h -1.901 l -5.392,-16.92 h -0.057 v 16.92 z"
   id="path108" />
<path
   d="m 55.417,236.926 -0.227,-1.68 c -1.277,1.056 -2.696,2.063 -4.541,2.063 -2.412,0 -4.342,-1.704 -4.342,-3.792 0,-3.792 4.711,-4.608 8.173,-5.4 l 0.709,-0.168 v -0.744 c 0,-1.512 -1.221,-2.328 -2.98,-2.328 -1.731,0 -2.923,0.96 -3.831,2.088 l -1.561,-0.984 c 1.305,-1.584 3.008,-2.688 5.392,-2.688 2.128,0 5.193,1.104 5.193,4.128 v 6.576 c 0.028,0.984 -0.028,1.992 0.426,2.928 h -2.411 z m -1.107,-7.224 c -2.1,0.528 -5.931,1.248 -5.931,3.625 0,1.104 1.021,2.207 2.355,2.207 1.759,0 3.377,-1.031 4.456,-2.16 v -3.887 z"
   id="path109" />
<path
   d="m 63.079,236.926 h -2.214 v -13.248 h 2.214 v 1.368 c 1.305,-0.888 2.525,-1.752 4.313,-1.752 2.214,0 4.001,1.032 4.001,4.488 v 9.144 H 69.18 v -8.664 c 0,-1.392 0.284,-3.432 -2.072,-3.432 -1.362,0 -3.15,1.128 -4.03,2.016 v 10.08 z"
   id="path110" />
<path
   d="m 83.824,227.374 c -0.54,-1.224 -1.391,-2.544 -3.15,-2.496 -3.405,0 -4.058,3.168 -4.058,5.424 0,2.256 0.653,5.424 4.058,5.424 1.901,-0.071 2.98,-1.368 3.661,-2.664 l 1.788,0.673 c -0.908,2.016 -2.923,3.575 -5.449,3.575 -3.491,0 -6.271,-2.04 -6.271,-7.008 0,-4.968 2.781,-7.008 6.271,-7.008 2.583,0 4.172,1.368 5.023,3.36 z"
   id="path111" />
<path
   d="m 91.344,225.046 c 1.305,-0.888 2.525,-1.752 4.313,-1.752 2.214,0 4.001,1.032 4.001,4.488 v 9.144 h -2.213 v -8.664 c 0,-1.392 0.284,-3.432 -2.072,-3.432 -1.362,0 -3.15,1.128 -4.03,2.016 v 10.08 H 89.13 v -18.672 h 2.214 z"
   id="path112" />
<path
   d="m 104.995,230.614 c 0,3.792 1.901,5.112 4.171,5.112 1.646,0 3.037,-1.128 3.832,-2.28 l 1.589,0.889 c -0.851,1.703 -2.951,2.976 -5.647,2.976 -3.491,0 -6.271,-2.04 -6.271,-7.008 0,-4.968 2.781,-7.008 6.271,-7.008 4.513,0 5.818,4.08 5.506,7.32 h -9.451 z m 7.123,-1.584 c 0.057,-1.704 -1.021,-4.152 -3.349,-4.152 -2.498,0 -3.689,2.28 -3.718,4.152 z"
   id="path113" />
<path
   d="m 126.336,226.63 c -0.88,-1.104 -1.93,-1.752 -3.576,-1.752 -1.447,0 -2.81,0.624 -2.81,1.968 0,3.24 8.259,1.824 8.259,6.288 0,2.592 -2.186,4.176 -5.137,4.176 -2.526,0 -4.569,-0.937 -5.846,-2.784 l 1.759,-0.936 c 0.852,1.368 2.214,2.136 4.087,2.136 1.618,0 3.065,-0.743 3.065,-2.256 0,-3.336 -8.259,-1.752 -8.259,-6.504 0,-2.28 2.214,-3.672 4.796,-3.672 2.185,0 4.001,0.768 5.222,2.304 z"
   id="path114" />
<path
   d="m 134.339,223.678 h 3.547 v 1.584 h -3.547 v 8.328 c 0,1.296 -0.029,2.136 1.788,2.136 0.625,0 1.22,-0.048 1.76,-0.168 v 1.368 c -0.709,0.216 -1.447,0.384 -2.214,0.384 -3.746,0 -3.547,-2.136 -3.547,-4.56 v -7.488 h -2.384 v -1.584 h 2.384 v -4.296 h 2.214 v 4.296 z"
   id="path115" />
<path
   d="m 141.746,230.614 c 0,3.792 1.901,5.112 4.171,5.112 1.646,0 3.037,-1.128 3.832,-2.28 l 1.589,0.889 c -0.851,1.703 -2.951,2.976 -5.647,2.976 -3.491,0 -6.271,-2.04 -6.271,-7.008 0,-4.968 2.781,-7.008 6.271,-7.008 4.513,0 5.818,4.08 5.506,7.32 h -9.451 z m 7.123,-1.584 c 0.057,-1.704 -1.021,-4.152 -3.349,-4.152 -2.498,0 -3.689,2.28 -3.718,4.152 z"
   id="path116" />
<path
   d="m 156.617,226.534 h 0.057 c 0.88,-1.584 2.015,-3.048 4.342,-3.048 h 0.851 v 1.704 c -2.895,-0.336 -4.398,2.304 -5.25,4.224 v 7.512 h -2.213 v -13.248 h 2.213 z"
   id="path117" />
<path
   d="m 26.256,252.478 c -1.164,-1.716 -1.703,-3.372 -1.703,-5.34 0,-1.968 0.54,-3.624 1.703,-5.34 l 0.879,0.312 c -0.937,1.584 -1.504,3.24 -1.504,5.028 0,1.788 0.567,3.444 1.504,5.028 z"
   id="path118" />
<path
   d="m 32.911,251.326 -0.113,-0.84 c -0.639,0.527 -1.348,1.031 -2.271,1.031 -1.206,0 -2.171,-0.852 -2.171,-1.896 0,-1.896 2.355,-2.303 4.086,-2.699 l 0.355,-0.084 v -0.372 c 0,-0.757 -0.61,-1.164 -1.49,-1.164 -0.865,0 -1.461,0.479 -1.916,1.044 l -0.78,-0.492 c 0.653,-0.792 1.504,-1.344 2.696,-1.344 1.064,0 2.597,0.552 2.597,2.064 v 3.287 c 0.015,0.492 -0.014,0.996 0.213,1.465 z m -0.553,-3.612 c -1.05,0.264 -2.966,0.624 -2.966,1.812 0,0.553 0.511,1.104 1.178,1.104 0.88,0 1.688,-0.517 2.228,-1.08 v -1.944 z"
   id="path119" />
<path
   d="m 40.006,246.178 c -0.44,-0.553 -0.965,-0.876 -1.788,-0.876 -0.724,0 -1.405,0.312 -1.405,0.983 0,1.621 4.129,0.912 4.129,3.145 0,1.296 -1.092,2.088 -2.568,2.088 -1.263,0 -2.284,-0.468 -2.923,-1.393 l 0.88,-0.467 c 0.425,0.684 1.106,1.067 2.043,1.067 0.809,0 1.533,-0.372 1.533,-1.128 0,-1.668 -4.129,-0.876 -4.129,-3.252 0,-1.141 1.107,-1.836 2.398,-1.836 1.093,0 2.001,0.384 2.611,1.152 z"
   id="path120" />
<path
   d="m 47.668,253.378 h -1.106 v -8.677 h 1.106 v 0.685 c 0.511,-0.456 1.207,-0.876 1.958,-0.876 1.348,0 2.909,1.031 2.909,3.636 0,2.544 -1.802,3.372 -2.866,3.372 -0.866,0 -1.476,-0.396 -2.001,-0.947 z m 0,-3.912 c 0.312,0.563 1.064,1.235 1.845,1.235 0.767,0 1.859,-0.636 1.859,-2.58 0,-0.996 -0.326,-2.795 -1.873,-2.795 -0.851,0 -1.49,0.492 -1.831,1.067 z"
   id="path121" />
<path
   d="m 55.004,248.17 c 0,1.896 0.951,2.556 2.086,2.556 0.823,0 1.518,-0.563 1.916,-1.14 l 0.794,0.443 c -0.426,0.853 -1.476,1.488 -2.824,1.488 -1.745,0 -3.136,-1.02 -3.136,-3.504 0,-2.484 1.391,-3.504 3.136,-3.504 2.256,0 2.909,2.04 2.753,3.66 h -4.725 z m 3.562,-0.793 c 0.028,-0.852 -0.511,-2.075 -1.674,-2.075 -1.249,0 -1.845,1.14 -1.859,2.075 z"
   id="path122" />
<path
   d="m 62.439,246.13 h 0.029 c 0.439,-0.792 1.007,-1.524 2.171,-1.524 h 0.426 v 0.852 c -1.448,-0.168 -2.2,1.152 -2.625,2.113 v 3.756 h -1.106 v -6.625 h 1.106 v 1.428 z"
   id="path123" />
<path
   d="m 71.535,251.326 h -1.164 v -9.336 h 1.164 z"
   id="path124" />
<path
   d="m 79.283,242.83 h -4.824 v 3.18 h 3.448 v 0.84 h -3.448 v 3.637 h 5.151 v 0.84 h -6.314 v -9.336 h 5.988 v 0.839 z"
   id="path125" />
<path
   d="m 87.201,242.83 h -4.824 v 3.18 h 3.448 v 0.84 h -3.448 v 3.637 h 5.151 v 0.84 h -6.314 v -9.336 h 5.988 v 0.839 z"
   id="path126" />
<path
   d="m 95.118,242.83 h -4.824 v 3.18 h 3.448 v 0.84 h -3.448 v 3.637 h 5.151 v 0.84 H 89.13 v -9.336 h 5.988 z"
   id="path127" />
<path
   d="m 107.875,248.961 c 0,1.669 -1.703,2.557 -3.505,2.557 -1.831,0 -3.562,-0.816 -3.562,-2.531 0,-1.369 0.908,-2.064 2.256,-2.641 -1.079,-0.553 -1.831,-1.104 -1.831,-2.244 0,-1.477 1.561,-2.304 3.165,-2.304 1.546,0 3.122,0.864 3.122,2.292 0,1.115 -0.866,1.812 -1.987,2.256 1.363,0.551 2.342,1.236 2.342,2.615 z m -5.96,-0.071 c 0,1.176 1.121,1.788 2.398,1.788 1.292,0 2.455,-0.576 2.455,-1.775 0,-1.248 -1.391,-1.765 -2.611,-2.089 -1.135,0.335 -2.242,0.936 -2.242,2.076 z m 4.498,-4.741 c 0,-0.972 -0.851,-1.512 -1.958,-1.512 -1.007,0 -2.114,0.468 -2.114,1.44 0,0.947 1.107,1.535 2.058,1.824 1.007,-0.239 2.014,-0.755 2.014,-1.752 z"
   id="path128" />
<path
   d="m 115.963,246.658 c 0,2.063 -0.539,4.859 -3.448,4.859 -2.909,0 -3.448,-2.796 -3.448,-4.859 0,-2.064 0.539,-4.86 3.448,-4.86 2.909,0 3.448,2.796 3.448,4.86 z m -5.818,0 c 0,1.487 0.199,4.02 2.37,4.02 2.171,0 2.37,-2.532 2.37,-4.02 0,-1.488 -0.199,-4.021 -2.37,-4.021 -2.171,0.001 -2.37,2.533 -2.37,4.021 z"
   id="path129" />
<path
   d="m 123.881,250.486 v 0.84 h -6.399 v -0.853 c 1.604,-3.408 5.236,-3.744 5.236,-6.048 0,-0.924 -0.695,-1.788 -1.859,-1.788 -1.234,0 -2.043,0.983 -2.213,1.933 l -1.008,-0.24 c 0.341,-1.416 1.519,-2.532 3.306,-2.532 1.76,0 2.938,1.14 2.938,2.592 0,2.796 -4.257,3.456 -5.236,6.097 h 5.235 z"
   id="path130" />
<path
   d="m 127.527,251.326 h -1.433 v -1.404 h 1.433 z"
   id="path131" />
<path
   d="m 131.643,246.886 v -0.912 l 0.922,0.024 c 1.632,0 2.355,-0.732 2.355,-1.681 0,-1.044 -0.752,-1.68 -1.987,-1.68 -0.965,0 -1.603,0.517 -2.114,1.14 l -0.837,-0.492 c 0.766,-0.888 1.845,-1.487 3.164,-1.487 1.816,0 2.881,1.104 2.881,2.399 0,1.092 -0.525,1.692 -1.646,2.185 1.277,0.36 1.944,1.224 1.944,2.34 0,1.728 -1.405,2.796 -3.406,2.796 -1.476,0 -2.667,-0.66 -3.349,-1.752 l 0.894,-0.456 c 0.582,0.792 1.291,1.368 2.469,1.368 1.334,0 2.228,-0.684 2.228,-1.836 0,-1.523 -1.164,-2.016 -2.795,-2.016 z"
   id="path132" />
<path
   d="m 137.587,252.166 c 0.937,-1.584 1.504,-3.24 1.504,-5.028 0,-1.788 -0.568,-3.444 -1.504,-5.028 l 0.88,-0.312 c 1.164,1.716 1.703,3.372 1.703,5.34 0,1.968 -0.539,3.624 -1.703,5.34 z"
   id="path133" />
<ellipse
   style="fill:none;stroke:#008000;stroke-width:4;stroke-miterlimit:3.8;stroke-dasharray:32, 4;stroke-opacity:0.411598"
   id="path134"
   cx="236.85326"
   cy="242.09126"
   rx="13.701695"
   ry="30.908035" /><ellipse
   style="fill:none;stroke:#008000;stroke-width:4;stroke-miterlimit:3.8;stroke-dasharray:32, 4;stroke-opacity:0.411598"
   id="ellipse134"
   cx="278.85327"
   cy="242.09126"
   rx="13.701695"
   ry="30.908035" /><ellipse
   style="fill:none;stroke:#008000;stroke-width:4;stroke-miterlimit:3.8;stroke-dasharray:32, 4;stroke-opacity:0.411598"
   id="ellipse135"
   cx="324.85327"
   cy="242.09126"
   rx="13.701695"
   ry="30.908035" /><ellipse
   style="fill:none;stroke:#008000;stroke-width:4;stroke-miterlimit:3.8;stroke-dasharray:32, 4;stroke-opacity:0.411598"
   id="ellipse136"
   cx="368.85327"
   cy="242.09126"
   rx="13.701695"
   ry="30.908035" /><ellipse
   style="fill:none;stroke:#008000;stroke-width:4;stroke-miterlimit:3.8;stroke-dasharray:32, 4;stroke-opacity:0.411598"
   id="ellipse137"
   cx="414.85327"
   cy="242.09126"
   rx="13.701695"
   ry="30.908035" /><ellipse
   style="fill:none;stroke:#008000;stroke-width:4;stroke-miterlimit:3.8;stroke-dasharray:32, 4;stroke-opacity:0.411598"
   id="ellipse138"
   cx="454.85327"
   cy="242.09126"
   rx="13.701695"
   ry="30.908035" /><ellipse
   style="fill:none;stroke:#008000;stroke-width:4;stroke-miterlimit:3.8;stroke-dasharray:32, 4;stroke-opacity:0.411598"
   id="ellipse139"
   cx="500.85327"
   cy="242.09126"
   rx="13.701695"
   ry="30.908035" /><ellipse
   style="fill:none;stroke:#008000;stroke-width:4;stroke-miterlimit:3.8;stroke-dasharray:32, 4;stroke-opacity:0.411598"
   id="ellipse140"
   cx="544.85327"
   cy="242.09126"
   rx="13.701695"
   ry="30.908035" /><ellipse
   style="fill:none;stroke:#008000;stroke-width:4;stroke-miterlimit:3.8;stroke-dasharray:32, 4;stroke-opacity:0.411598"
   id="ellipse141"
   cx="588.85327"
   cy="242.09126"
   rx="13.701695"
   ry="30.908035" /><ellipse
   style="fill:none;stroke:#008000;stroke-width:4;stroke-miterlimit:3.8;stroke-dasharray:32, 4;stroke-opacity:0.411598"
   id="ellipse142"
   cx="632.85327"
   cy="242.09126"
   rx="13.701695"
   ry="30.908035" /><ellipse
   style="fill:none;stroke:#008000;stroke-width:4;stroke-miterlimit:3.8;stroke-dasharray:32, 4;stroke-opacity:0.411598"
   id="ellipse143"
   cx="674.85327"
   cy="242.09126"
   rx="13.701695"
   ry="30.908035" /><ellipse
   style="fill:none;stroke:#b3b3b3;stroke-width:4;stroke-miterlimit:3.8;stroke-dasharray:32, 4;stroke-opacity:0.411598"
   id="ellipse144"
   cx="390.85327"
   cy="242.09125"
   rx="13.701695"
   ry="30.908035" /><ellipse
   style="fill:none;stroke:#b3b3b3;stroke-width:4;stroke-miterlimit:3.8;stroke-dasharray:32, 4;stroke-opacity:0.411598"
   id="ellipse145"
   cx="478.85327"
   cy="242.09125"
   rx="13.701695"
   ry="30.908035" /><ellipse
   style="fill:none;stroke:#b3b3b3;stroke-width:4;stroke-miterlimit:3.8;stroke-dasharray:32, 4;stroke-opacity:0.411598"
   id="ellipse146"
   cx="522.85327"
   cy="242.09125"
   rx="13.701695"
   ry="30.908035" /><ellipse
   style="fill:none;stroke:#b3b3b3;stroke-width:4;stroke-miterlimit:3.8;stroke-dasharray:32, 4;stroke-opacity:0.411598"
   id="ellipse147"
   cx="608.85327"
   cy="242.09125"
   rx="13.701695"
   ry="30.908035" /></svg>
